REM DIRINDEX 1\4,1\2\5,1\2\6,1\2\7,1\3\8,1\3\9,1\3\10,1\3\11
REM DIRNAME cjc108,folder01,folder02,folder03,folder04,folder05,folder06,folder07,folder08,folder09,folder10
TITLE ""
FILE "t_j_1.mp3" MP3
  TRACK 01 AUDIO
    TITLE "8:cjc108_1797"
    INDEX 01 00:00:00
  TRACK 02 AUDIO
    TITLE "0:"
    INDEX 01 00:02:34
  TRACK 03 AUDIO
    TITLE "9:cjc108_1798"
    INDEX 01 00:03:41
  TRACK 04 AUDIO
    TITLE "0:"
    INDEX 01 00:05:01
  TRACK 05 AUDIO
    TITLE "10:cjc108_1799"
    INDEX 01 00:05:12
  TRACK 06 AUDIO
    TITLE "0:"
    INDEX 01 00:06:35
  TRACK 07 AUDIO
    TITLE "9:cjc108_1800"
    INDEX 01 00:07:07
  TRACK 08 AUDIO
    TITLE "0:"
    INDEX 01 00:09:10
  TRACK 09 AUDIO
    TITLE "10:cjc108_1801"
    INDEX 01 00:09:26
  TRACK 10 AUDIO
    TITLE "0:"
    INDEX 01 00:12:01
  TRACK 11 AUDIO
    TITLE "11:cjc108_1802"
    INDEX 01 00:12:50
  TRACK 12 AUDIO
    TITLE "0:"
    INDEX 01 00:19:11
  TRACK 13 AUDIO
    TITLE "9:cjc108_1803"
    INDEX 01 00:20:63
  TRACK 14 AUDIO
    TITLE "0:"
    INDEX 01 00:22:23
  TRACK 15 AUDIO
    TITLE "10:cjc108_1804"
    INDEX 01 00:22:34
  TRACK 16 AUDIO
    TITLE "0:"
    INDEX 01 00:24:02
  TRACK 17 AUDIO
    TITLE "9:cjc108_1805"
    INDEX 01 00:24:53
  TRACK 18 AUDIO
    TITLE "0:"
    INDEX 01 00:26:20
  TRACK 19 AUDIO
    TITLE "10:cjc108_1806"
    INDEX 01 00:26:30
  TRACK 20 AUDIO
    TITLE "0:"
    INDEX 01 00:27:53
  TRACK 21 AUDIO
    TITLE "9:cjc108_1807"
    INDEX 01 00:28:27
  TRACK 22 AUDIO
    TITLE "0:"
    INDEX 01 00:29:46
  TRACK 23 AUDIO
    TITLE "10:cjc108_1808"
    INDEX 01 00:29:48
  TRACK 24 AUDIO
    TITLE "0:"
    INDEX 01 00:30:65
  TRACK 25 AUDIO
    TITLE "9:cjc108_1809"
    INDEX 01 00:31:37
  TRACK 26 AUDIO
    TITLE "0:"
    INDEX 01 00:33:01
  TRACK 27 AUDIO
    TITLE "10:cjc108_1810"
    INDEX 01 00:33:15
  TRACK 28 AUDIO
    TITLE "0:"
    INDEX 01 00:35:53
  TRACK 29 AUDIO
    TITLE "11:cjc108_1811"
    INDEX 01 00:36:23
  TRACK 30 AUDIO
    TITLE "0:"
    INDEX 01 00:44:32
  TRACK 31 AUDIO
    TITLE "9:cjc108_1812"
    INDEX 01 00:46:07
  TRACK 32 AUDIO
    TITLE "0:"
    INDEX 01 00:47:23
  TRACK 33 AUDIO
    TITLE "10:cjc108_1813"
    INDEX 01 00:47:25
  TRACK 34 AUDIO
    TITLE "0:"
    INDEX 01 00:49:53
  TRACK 35 AUDIO
    TITLE "9:cjc108_1814"
    INDEX 01 00:50:29
  TRACK 36 AUDIO
    TITLE "0:"
    INDEX 01 00:51:50
  TRACK 37 AUDIO
    TITLE "10:cjc108_1815"
    INDEX 01 00:51:52
  TRACK 38 AUDIO
    TITLE "0:"
    INDEX 01 00:53:15
  TRACK 39 AUDIO
    TITLE "11:cjc108_1816"
    INDEX 01 00:53:70
  TRACK 40 AUDIO
    TITLE "0:"
    INDEX 01 00:58:56
  TRACK 41 AUDIO
    TITLE "9:cjc108_1817"
    INDEX 01 01:00:35
  TRACK 42 AUDIO
    TITLE "0:"
    INDEX 01 01:02:06
  TRACK 43 AUDIO
    TITLE "10:cjc108_1818"
    INDEX 01 01:02:12
  TRACK 44 AUDIO
    TITLE "0:"
    INDEX 01 01:03:61
  TRACK 45 AUDIO
    TITLE "11:cjc108_1819"
    INDEX 01 01:04:41
  TRACK 46 AUDIO
    TITLE "0:"
    INDEX 01 01:08:42
  TRACK 47 AUDIO
    TITLE "9:cjc108_1820"
    INDEX 01 01:10:24
  TRACK 48 AUDIO
    TITLE "0:"
    INDEX 01 01:11:72
  TRACK 49 AUDIO
    TITLE "10:cjc108_1821"
    INDEX 01 01:12:01
  TRACK 50 AUDIO
    TITLE "0:"
    INDEX 01 01:13:10
  TRACK 51 AUDIO
    TITLE "9:cjc108_1822"
    INDEX 01 01:13:63
  TRACK 52 AUDIO
    TITLE "0:"
    INDEX 01 01:14:72
  TRACK 53 AUDIO
    TITLE "10:cjc108_1823"
    INDEX 01 01:15:19
  TRACK 54 AUDIO
    TITLE "0:"
    INDEX 01 01:17:33
  TRACK 55 AUDIO
    TITLE "11:cjc108_1824"
    INDEX 01 01:18:11
  TRACK 56 AUDIO
    TITLE "0:"
    INDEX 01 01:24:26
  TRACK 57 AUDIO
    TITLE "9:cjc108_1825"
    INDEX 01 01:26:09
  TRACK 58 AUDIO
    TITLE "0:"
    INDEX 01 01:27:14
  TRACK 59 AUDIO
    TITLE "10:cjc108_1826"
    INDEX 01 01:27:26
  TRACK 60 AUDIO
    TITLE "0:"
    INDEX 01 01:28:33
  TRACK 61 AUDIO
    TITLE "9:cjc108_1827"
    INDEX 01 01:29:13
  TRACK 62 AUDIO
    TITLE "0:"
    INDEX 01 01:30:28
  TRACK 63 AUDIO
    TITLE "10:cjc108_1828"
    INDEX 01 01:30:40
  TRACK 64 AUDIO
    TITLE "0:"
    INDEX 01 01:31:49
  TRACK 65 AUDIO
    TITLE "9:cjc108_1829"
    INDEX 01 01:32:25
  TRACK 66 AUDIO
    TITLE "0:"
    INDEX 01 01:33:42
  TRACK 67 AUDIO
    TITLE "10:cjc108_1830"
    INDEX 01 01:33:46
  TRACK 68 AUDIO
    TITLE "0:"
    INDEX 01 01:35:73
  TRACK 69 AUDIO
    TITLE "11:cjc108_1831"
    INDEX 01 01:36:43
  TRACK 70 AUDIO
    TITLE "0:"
    INDEX 01 01:43:60
